<svg width="727" height="518" viewBox="0 0 727 518" fill="none" xmlns="http://www.w3.org/2000/svg">
<g clip-path="url(#clip0_110_2)">
<path d="M597.684 518H0L128.395 0H726.079L597.684 518Z" fill="#20B2FF"/>
<path d="M248.192 436.518C233.551 436.518 222.439 431.753 214.859 422.245C207.278 412.715 203.986 401.127 204.982 387.46C205.957 373.793 212.065 361.101 223.284 349.384L381.483 159.693H243.795C215.963 159.693 202.058 146.026 202.058 118.67C202.058 91.315 215.963 76.9333 243.795 76.9333H455.448C472.538 76.9333 485.36 81.6983 493.893 91.2067C502.427 100.737 506.218 112.216 505.243 125.623C504.268 139.052 498.399 151.614 487.656 163.332L328.006 354.474H473.75C501.582 354.474 515.488 368.14 515.488 395.496C515.488 422.851 501.582 436.518 473.75 436.518H248.171H248.192Z" fill="white"/>
</g>
<defs>
<clipPath id="clip0_110_2">
<rect width="726.06" height="518" fill="white"/>
</clipPath>
</defs>
</svg>
